<svg enable-background="new 0 0 346.317 99.212" viewBox="0 0 346.317 99.212" xmlns="http://www.w3.org/2000/svg" xmlns:xlink="http://www.w3.org/1999/xlink"><clipPath id="a"><path d="m0 0h346.317v99.212h-346.317z"/></clipPath><path d="m0 0h346.317v99.212h-346.317z" fill="#fff"/><g fill="#e3000f"><path clip-path="url(#a)" d="m137.217 40.959h-9.592l-12.392 17.299v-17.299h-8.46v37.72h8.46v-16.976l12.392 16.976h9.809l-14.549-19.291zm18.713 15.25c-1.51-1.453-4.095-3.18-7.704-3.18-7.005 0-11.856 5.82-11.856 13.202 0 7.275 4.797 12.987 11.856 12.987 3.823 0 6.358-1.78 7.704-3.127v2.587h7.274v-25.111h-7.274zm0 14.441c-1.023 1.132-2.748 2.371-5.335 2.371-3.879 0-6.627-2.802-6.627-6.896 0-4.097 2.748-6.898 6.627-6.898 2.587 0 4.312 1.239 5.335 2.372zm97.1-14.441c-1.512-1.453-4.097-3.18-7.707-3.18-7.005 0-11.858 5.82-11.858 13.202 0 7.275 4.797 12.987 11.858 12.987 3.826 0 6.358-1.78 7.707-3.127v2.587h7.271v-25.111h-7.271zm0 14.441c-1.026 1.132-2.75 2.371-5.337 2.371-3.88 0-6.628-2.802-6.628-6.896 0-4.097 2.748-6.898 6.628-6.898 2.587 0 4.311 1.239 5.337 2.372zm-66.951-.593c-.97 1.239-2.691 2.856-5.386 2.856-3.071 0-4.906-1.994-4.906-5.279v-14.067h-7.381v15.522c0 5.927 3.395 10.129 9.646 10.129 4.15 0 6.732-2.158 8.027-3.556v3.017h7.277v-25.112h-7.277zm26.617-23.546c2.478 0 3.935 1.076 3.935 1.076l1.187-5.604s-1.995-1.563-6.738-1.563c-6.142 0-9.968 3.558-9.968 10.185v2.962h-3.72v6.037h3.72v19.075h7.489v-19.075h8.514v-6.037h-8.514v-2.316c0-3.178 1.455-4.74 4.095-4.74m8.648 32.168h7.488v-37.72h-7.488zm59.594-25.65c-4.095 0-6.735 2.155-7.977 3.559v-3.021h-7.328v25.112h7.328v-16.49c.919-1.294 2.641-2.855 5.389-2.855 3.073 0 4.85 1.993 4.85 5.283v14.062h7.383v-15.519c0-5.925-3.394-10.131-9.645-10.131m33.537-12.07v15.466c-1.293-1.349-3.936-3.396-7.976-3.396-7.056 0-11.853 5.82-11.853 13.202 0 7.381 4.903 12.987 11.853 12.987 4.04 0 6.683-1.994 7.976-3.394v2.855h7.273v-37.72zm0 29.369c-.972 1.239-2.804 2.693-5.607 2.693-3.878 0-6.625-2.802-6.625-6.896 0-4.097 2.747-6.898 6.625-6.898 2.803 0 4.635 1.455 5.607 2.694z"/><path clip-path="url(#a)" d="m6.063 93.16h87.104v-87.109h-87.104zm82.331-4.775h-77.561v-77.563h77.561z"/><path clip-path="url(#a)" d="m20.534 20.522h26.808v26.808h-26.808z"/><path clip-path="url(#a)" d="m20.501 51.885h26.808v26.808h-26.808z"/><path clip-path="url(#a)" d="m51.889 78.678h26.82l-26.82-26.819z"/><path clip-path="url(#a)" d="m51.907 20.518v26.821l26.821-26.821z"/></g></svg>